HIERARCHY
ROOT Hips
{
	OFFSET	0.000000	0.000000	0.000000
	CHANNELS 6 Xposition Yposition Zposition Zrotation Xrotation Yrotation
	JOINT LeftHip
	{
		OFFSET	4.740440	-3.195970	-0.322709
		CHANNELS 3 Zrotation Xrotation Yrotation
		JOINT LeftKnee
		{
			OFFSET	-1.605680	-15.592300	1.005510
			CHANNELS 3 Zrotation Xrotation Yrotation
			JOINT LeftAnkle
			{
				OFFSET	-0.632401	-16.421000	-1.413730
				CHANNELS 3 Zrotation Xrotation Yrotation
				End Site
				{
					OFFSET	0.008423	-2.933000	-1.684880
				}
			}
		}
	}
	JOINT RightHip
	{
		OFFSET	-4.740440	-3.195970	-0.322709
		CHANNELS 3 Zrotation Xrotation Yrotation
		JOINT RightKnee
		{
			OFFSET	1.605680	-15.592300	1.005510
			CHANNELS 3 Zrotation Xrotation Yrotation
			JOINT RightAnkle
			{
				OFFSET	0.632401	-16.421000	-1.413730
				CHANNELS 3 Zrotation Xrotation Yrotation
				End Site
				{
					OFFSET	-0.008423	-2.933000	-1.684880
				}
			}
		}
	}
	JOINT Chest
	{
		OFFSET	0.000000	3.468200	0.078401
		CHANNELS 3 Zrotation Xrotation Yrotation
		JOINT LeftCollar
		{
			OFFSET	3.857650	15.070700	-0.011583
			CHANNELS 3 Zrotation Xrotation Yrotation
			JOINT LeftShoulder
			{
				OFFSET	3.979720	-1.940530	-0.165223
				CHANNELS 3 Zrotation Xrotation Yrotation
				JOINT LeftElbow
				{
					OFFSET	0.615844	-10.986600	-0.673886
					CHANNELS 3 Zrotation Xrotation Yrotation
					JOINT LeftWrist
					{
						OFFSET	0.826843	-10.854500	1.034220
						CHANNELS 3 Zrotation Xrotation Yrotation
						End Site
						{
							OFFSET	-1.679080	-8.456540	0.936217
						}
					}
				}
			}
		}
		JOINT RightCollar
		{
			OFFSET	-3.857650	15.070700	-0.011583
			CHANNELS 3 Zrotation Xrotation Yrotation
			JOINT RightShoulder
			{
				OFFSET	-3.979720	-1.940530	-0.165223
				CHANNELS 3 Zrotation Xrotation Yrotation
				JOINT RightElbow
				{
					OFFSET	-0.615845	-10.986600	-0.673886
					CHANNELS 3 Zrotation Xrotation Yrotation
					JOINT RightWrist
					{
						OFFSET	-0.826843	-10.854500	1.034220
						CHANNELS 3 Zrotation Xrotation Yrotation
						End Site
						{
							OFFSET	1.679080	-8.456540	0.936217
						}
					}
				}
			}
		}
		JOINT Neck
		{
			OFFSET	0.000000	15.101400	0.055730
			CHANNELS 3 Zrotation Xrotation Yrotation
			JOINT Head
			{
				OFFSET	0.000000	4.185120	1.488260
				CHANNELS 3 Zrotation Xrotation Yrotation
				End Site
				{
					OFFSET	0.000000	7.773420	-0.106016
				}
			}
		}
	}
}
MOTION
Frames:    10
Frame Time: 0.016667
0.462025	37.598488	-1.019015	0.680810	-10.608183	-23.994699	-4.538344	8.338975	2.504737	-2.623824	5.490807	7.935689	4.074480	-6.234497	7.883434	-18.552624	-2.635589	-1.981684	3.202641	17.263422	5.010118	8.574952	-5.364756	5.411901	-8.619240	8.210791	0.717650	-1.609645	-2.421409	2.543320	5.055771	1.512745	1.365199	-4.108294	-28.857252	-3.165307	13.296162	15.084529	-31.149624	-4.027986	-3.216091	-2.594988	-2.705273	2.915677	2.678420	-0.581482	-19.166183	19.242470	-17.483789	-4.286176	14.062413	-5.285475	6.017055	-4.901536	7.868158	6.311624	-8.178251	
0.452422	37.598850	-1.011274	0.680810	-10.608183	-23.994699	-4.538344	8.338975	2.504737	-2.626712	5.515110	7.929739	4.074842	-6.258460	7.891432	-18.551817	-2.622426	-1.978752	3.217488	17.278570	4.975026	8.561687	-5.387363	5.444294	-8.603124	8.221807	0.749197	-1.691827	-2.066165	2.640365	4.516581	1.660145	1.284997	-3.658240	-26.193136	-2.379095	14.304052	15.343619	-31.840044	-3.999853	-3.167698	-2.574883	-2.447261	3.027843	2.611414	-0.756915	-17.592834	18.916599	-18.366909	-4.089357	13.936951	-5.311322	6.107888	-4.909469	7.953633	6.356046	-8.234644	
0.448402	37.598484	-1.008819	0.680810	-10.608183	-23.994699	-4.538344	8.338975	2.504737	-2.620895	5.524814	7.927826	4.067987	-6.267154	7.893422	-18.551817	-2.622426	-1.978752	3.224858	17.293228	4.961782	8.554636	-5.399554	5.457367	-8.588282	8.231955	0.778222	-1.739381	-1.954508	2.643646	4.405770	1.675514	1.265628	-3.560052	-25.176838	-2.204419	14.574504	15.416246	-32.125648	-4.034523	-3.143265	-2.616175	-2.269905	3.084998	2.612588	-0.848807	-16.770569	18.762419	-18.736135	-2.942721	13.813301	-5.333866	6.180868	-4.917006	7.970087	6.342331	-8.264276	
0.436694	37.596676	-1.001257	0.680810	-10.608183	-23.994699	-4.538344	8.338975	2.504737	-2.615717	5.559407	7.919880	4.059192	-6.300095	7.903286	-18.551817	-2.622426	-1.978752	3.247063	17.338177	4.934147	8.538296	-5.445899	5.479599	-8.545285	8.261437	0.862418	-1.921579	-1.682045	2.586950	4.170810	1.733037	1.177995	-3.245287	-21.875801	-1.777050	15.327404	15.719098	-33.161125	-4.077232	-3.049349	-2.679034	-1.855133	3.197941	2.678462	-1.097656	-14.192533	18.058914	-19.623699	-3.470630	13.631156	-5.395601	6.369123	-4.947321	7.979735	6.341291	-8.335050	
0.432071	37.595745	-0.998499	0.680810	-10.608183	-23.994699	-4.538344	8.338975	2.504737	-2.615717	5.559407	7.919880	4.059192	-6.300095	7.903286	-18.551817	-2.622426	-1.978752	3.255240	17.355221	4.931953	8.535189	-5.467027	5.483672	-8.532715	8.270072	0.887059	-1.998525	-1.608604	2.559568	4.142101	1.745236	1.135425	-3.153461	-20.694248	-1.691995	15.560920	15.831496	-33.529167	-4.121077	-3.011483	-2.723262	-1.687118	3.228049	2.722275	-1.179689	-13.322313	17.855980	-19.824610	-3.278696	13.569489	-5.414174	6.428438	-4.954921	7.993691	6.350611	-8.351982	
0.410488	37.592861	-0.982309	0.678676	-10.614966	-24.026600	-4.542915	8.346039	2.545615	-2.620763	5.598140	7.901179	4.059813	-6.340352	7.916569	-18.551191	-2.625765	-1.946603	3.291695	17.433672	4.959258	8.504641	-5.555645	5.470844	-8.514082	8.289006	0.966961	-2.208898	-1.349620	2.502744	4.082482	1.758705	1.021826	-2.808300	-17.105873	-1.438808	16.252733	16.183117	-34.856564	-4.208666	-2.943645	-2.812351	-1.264934	3.346890	2.884039	-1.395342	-10.650776	17.378542	-20.281969	-2.733379	13.351770	-5.526324	6.592149	-4.913189	8.077477	6.400057	-8.486714	
0.402728	37.591141	-0.974972	0.667745	-10.613358	-24.048075	-4.533976	8.351095	2.577402	-2.621243	5.596678	7.888290	4.059844	-6.341934	7.917232	-18.539835	-2.629200	-1.927207	3.305357	17.463488	4.976201	8.490764	-5.588516	5.459874	-8.506482	8.289000	0.986845	-2.276775	-1.280169	2.517841	4.064640	1.780524	0.973792	-2.671180	-15.926856	-1.360470	16.492949	16.319296	-35.347328	-4.194912	-2.915354	-2.793578	-1.144892	3.388011	2.902755	-1.483352	-9.791119	17.248621	-20.417606	-2.594819	13.299487	-5.569269	6.652392	-4.874358	8.119965	6.421541	-8.535814	
0.380359	37.587650	-0.957023	0.665416	-10.612967	-24.052349	-4.527170	8.365327	2.626152	-2.607208	5.605410	7.838139	4.042463	-6.359818	7.920824	-18.535217	-2.628252	-1.931448	3.340977	17.551325	5.048177	8.445158	-5.687065	5.408971	-8.504800	8.289002	0.990777	-2.344364	-0.989630	2.653835	3.825030	1.811186	0.862483	-2.189547	-12.666272	-1.064634	17.360722	16.805422	-36.939762	-4.088604	-2.783685	-2.667557	-0.839894	3.477646	2.852251	-1.782822	-7.367935	16.920462	-20.743261	-2.383965	13.375237	-5.625745	6.818101	-4.803775	8.163749	6.477316	-8.605223	
0.374152	37.586826	-0.951791	0.665416	-10.612967	-24.052349	-4.524025	8.390640	2.652325	-2.600447	5.592227	7.808242	4.033014	-6.369207	7.922708	-18.532938	-2.626538	-1.939870	3.347178	17.574993	5.079463	8.430191	-5.714486	5.387042	-8.504800	8.289002	0.990777	-2.338586	-0.908026	2.721277	3.699166	1.842746	0.848872	-2.011799	-11.681825	-0.907147	17.747128	16.992685	-37.455566	-4.035746	-2.716776	-2.603977	-0.469995	3.730729	2.779778	-2.199564	-6.858603	16.828726	-20.815493	-2.374391	13.445931	-5.666008	6.867382	-4.768600	8.202067	6.491461	-8.581287	
0.358635	37.584759	-0.938724	0.665416	-10.612967	-24.052349	-4.523558	8.394932	2.655772	-2.576383	5.619030	7.798692	4.005397	-6.396225	7.928097	-18.527374	-2.622355	-1.960521	3.362972	17.634331	5.156449	8.392705	-5.782951	5.332938	-8.470962	8.312376	1.057175	-2.272399	-0.588377	2.897440	3.203683	2.025940	0.948865	-1.490649	-9.407476	-0.139710	19.201893	17.824286	-38.705353	-3.899551	-2.515624	-2.468726	-0.387662	3.799606	2.420791	-2.439838	-4.970528	16.735474	-20.979691	-2.381978	13.630803	-5.700103	7.004762	-4.751258	8.240012	6.482387	-8.543964	
